<svg width="36" height="23" viewBox="0 0 36 23" fill="none" xmlns="http://www.w3.org/2000/svg">
<path fill-rule="evenodd" clip-rule="evenodd" d="M11.2203 9.80571V13.728H17.5838C17.3273 15.4113 15.6603 18.6635 11.2203 18.6635C7.38937 18.6635 4.26373 15.4277 4.26373 11.44C4.26373 7.45234 7.38937 4.21646 11.2203 4.21646C13.4002 4.21646 14.8589 5.16434 15.6924 5.98149L18.7379 2.99074C16.7823 1.12766 14.2498 0 11.2203 0C5.01709 0 3.05176e-05 5.11531 3.05176e-05 11.44C3.05176e-05 17.7647 5.01709 22.88 11.2203 22.88C17.696 22.88 21.9917 18.2386 21.9917 11.7015C21.9917 10.9497 21.9116 10.3777 21.8154 9.80571H11.2203Z" fill="#EBCB80"/>
<path fill-rule="evenodd" clip-rule="evenodd" d="M35.2637 9.80568H32.0579V6.53711H28.8521V9.80568H25.6463V13.0743H28.8521V16.3428H32.0579V13.0743H35.2637" fill="#EBCB80"/>
</svg>
