<svg width="24" height="24" viewBox="0 0 24 24" fill="none" xmlns="http://www.w3.org/2000/svg">
<mask id="mask0_0_195" style="mask-type:alpha" maskUnits="userSpaceOnUse" x="0" y="0" width="24" height="24">
<path fill-rule="evenodd" clip-rule="evenodd" d="M0 23.995H24V0H0V23.995Z" fill="white"/>
</mask>
<g mask="url(#mask0_0_195)">
<path fill-rule="evenodd" clip-rule="evenodd" d="M21.3333 6.66667C21.3333 7.03483 21.0348 7.33333 20.6667 7.33333H17.3333C16.9652 7.33333 16.6667 7.03483 16.6667 6.66667V3.33333C16.6667 2.96517 16.9652 2.66667 17.3333 2.66667H20.6667C21.0348 2.66667 21.3333 2.96517 21.3333 3.33333V6.66667ZM21.3333 20.6667C21.3333 21.0348 21.0348 21.3333 20.6667 21.3333H3.33333C2.96517 21.3333 2.66667 21.0348 2.66667 20.6667V10H4.94283C4.763 10.6357 4.66667 11.3067 4.66667 12C4.66667 16.0501 7.94992 19.3333 12 19.3333C16.0501 19.3333 19.3333 16.0501 19.3333 12C19.3333 11.3067 19.237 10.6357 19.0572 10H21.3333V20.6667ZM12 7.33333C14.5773 7.33333 16.6667 9.42267 16.6667 12C16.6667 14.5773 14.5773 16.6667 12 16.6667C9.42267 16.6667 7.33333 14.5773 7.33333 12C7.33333 9.42267 9.42267 7.33333 12 7.33333ZM20.6667 0H3.33333C1.49242 0 0 1.49242 0 3.33333V20.6667C0 22.5076 1.49242 24 3.33333 24H20.6667C22.5076 24 24 22.5076 24 20.6667V3.33333C24 1.49242 22.5076 0 20.6667 0Z" fill="#EBCB80"/>
</g>
</svg>
