<svg width="26" height="24" viewBox="0 0 26 24" fill="none" xmlns="http://www.w3.org/2000/svg">
<mask id="mask0_0_205" style="mask-type:alpha" maskUnits="userSpaceOnUse" x="0" y="0" width="26" height="24">
<path fill-rule="evenodd" clip-rule="evenodd" d="M0.712646 23.96H25.4052V0H0.712646V23.96Z" fill="white"/>
</mask>
<g mask="url(#mask0_0_205)">
<path fill-rule="evenodd" clip-rule="evenodd" d="M21.7547 20.4507H18.0932V14.8807C18.0932 13.5527 18.0692 11.844 16.1898 11.844C14.2843 11.844 13.9935 13.2913 13.9935 14.786V20.4507H10.3355V8.99733H13.846V10.5633H13.8961C14.3845 9.66267 15.58 8.71333 17.3621 8.71333C21.0695 8.71333 21.7547 11.0847 21.7547 14.1693V20.4507ZM6.20552 7.43267C5.02916 7.43267 4.08121 6.508 4.08121 5.368C4.08121 4.22867 5.02916 3.304 6.20552 3.304C7.37707 3.304 8.32845 4.22867 8.32845 5.368C8.32845 6.508 7.37707 7.43267 6.20552 7.43267ZM4.37204 20.4507H8.03762V8.99733H4.37204V20.4507ZM23.5786 0H2.53446C1.52958 0 0.712646 0.774667 0.712646 1.73067V22.268C0.712646 23.224 1.52958 24 2.53446 24H23.5786C24.5862 24 25.4052 23.224 25.4052 22.268V1.73067C25.4052 0.774667 24.5862 0 23.5786 0Z" fill="#EBCB80"/>
</g>
</svg>
