<svg width="11" height="17" viewBox="0 0 11 17" fill="none" xmlns="http://www.w3.org/2000/svg">
<path fill-rule="evenodd" clip-rule="evenodd" d="M5.37774 16.7235C5.12879 16.7234 4.89755 16.5907 4.7664 16.3727C3.35712 14.0841 0 8.33863 0 5.54067C0 2.48067 2.40767 0 5.37771 0C8.3477 0 10.7554 2.48067 10.7554 5.54067C10.7554 8.33863 7.39825 14.0841 5.98915 16.3729C5.85801 16.5909 5.62673 16.7235 5.37774 16.7235ZM7.33333 5.1C7.33333 6.24753 6.43044 7.17778 5.31667 7.17778C4.20289 7.17778 3.3 6.24753 3.3 5.1C3.3 3.95248 4.20289 3.02222 5.31667 3.02222C6.43044 3.02222 7.33333 3.95248 7.33333 5.1Z" fill="white"/>
</svg>
